<svg viewBox="0 0 64 64" xmlns="http://www.w3.org/2000/svg"><g fill="#64892f"><path d="m16.9 11.2c4.9 4.9 5.7 8.2 4.1 9.8s-4.9.8-9.8-4.1-7.9-13.6-7.9-13.6 8.7 3 13.6 7.9"/><path d="m23.7 14.1c2.9 6.3 2.5 9.7.5 10.6s-4.9-.9-7.8-7.2-2.8-15.5-2.8-15.5 7.2 5.8 10.1 12.1"/><path d="m29.6 21.2c-2.9 6.3-5.7 8.2-7.7 7.2-2-.9-2.5-4.3.4-10.6s10-12.2 10-12.2.2 9.4-2.7 15.6"/><path d="m26.9 18c-.4 6.9-2.4 9.7-4.6 9.6s-3.9-3.1-3.5-10 4.9-15 4.9-15 3.6 8.4 3.2 15.4"/><path d="m33.2 24c-4.4 5.3-7.7 6.4-9.4 4.9-1.7-1.4-1.2-4.8 3.2-10.1s12.9-9.1 12.9-9.1-2.2 9-6.7 14.3"/><path d="m14.1 23.7c6.3 2.9 9.7 2.5 10.6.5s-.9-4.9-7.2-7.8-15.5-2.8-15.5-2.8 5.8 7.2 12.1 10.1"/><path d="m21.2 29.6c6.3-2.9 8.2-5.7 7.2-7.7-.9-2-4.3-2.5-10.6.4s-12.2 10-12.2 10 9.4.2 15.6-2.7"/><path d="m18 26.9c6.9-.4 9.7-2.4 9.6-4.6s-3.1-3.9-10-3.5-15 4.9-15 4.9 8.4 3.6 15.4 3.2"/><path d="m24 33.2c5.3-4.4 6.4-7.7 4.9-9.4-1.4-1.7-4.8-1.2-10.1 3.2s-9.1 12.9-9.1 12.9 9-2.2 14.3-6.7"/></g><path d="m55.9 31.2c8 8 5.8 16.8-1.1 23.6-6.8 6.8-15.7 9.1-23.6 1.1-8-8-14.7-25.8-7.9-32.6s24.6-.1 32.6 7.9" fill="#b46137"/><path d="m47.1 47.1c-1 1-2.1 4.3-1.2 5.2s4.3-.2 5.2-1.2c1-1 2.1-4.3 1.2-5.2s-4.3.2-5.2 1.2m5.8 5.8c-1 1-1.8 4.6-.9 5.5s7.4-5.6 6.5-6.5c-1-.8-4.7 0-5.6 1m-18.1-18.1c-1 1-2.1 4.3-1.2 5.2s4.3-.2 5.2-1.2c1-1 2.1-4.3 1.2-5.2s-4.2.3-5.2 1.2m6.1 6.1c-1 1-2.1 4.3-1.2 5.2s4.3-.1 5.3-1.1 2.1-4.3 1.2-5.2-4.3.2-5.3 1.1m-11.9-11.9c-1 1-2.1 4.3-1.2 5.2s4.2-.2 5.2-1.2 2.1-4.3 1.2-5.2-4.3.2-5.2 1.2zm.1 23c-1.4 1.4-1 5.8 3.6 7 1.2.3 3.5-7.4 2.6-8.4-1.7-1.7-5.3.5-6.2 1.4m7.3 5.7c-3.5 3.5 2.4 5.7 4.7 3.4.9-.9 1.2-3.4.3-4.3-.9-1-4.1 0-5 .9m1.7-8.7c-1 1-2.1 5.1-1.2 6s5.2 0 6.2-1 1.5-4.8.6-5.7c-.8-.9-4.6-.3-5.6.7m6.2 6.2c-1 1-1.8 4.7-.9 5.6 1.7 1.7 4.9.3 5.8-.6 1-1 1.5-4.9.6-5.8-.8-1-4.5-.2-5.5.8m-12.1-12.1c-1 1-2.4 4.8-1.5 5.7s5.1-.1 6.1-1.1 1.8-4.7.9-5.6-4.5 0-5.5 1m-11.6-11.8c-1 1-1.4 3.7-.5 4.6s3.6.5 4.6-.5 2.1-4.3 1.2-5.2-4.4.1-5.3 1.1m0 6.8c-.9.9.8 6.5 1.6 5.6.9-.9 2.4-4.7 1.5-5.6s-2.2-.9-3.1 0m3.7 7.2c-1.2 1.2-1.4 6.2 1.8 6.7 1.2.2 4.2-6.4 3.2-7.3-.8-.9-4.1-.2-5 .6m1.9-8.2c-1 1-1.8 4.7-.9 5.6s4.8.2 5.7-.8c1-1 1.6-4.7.7-5.6s-4.5-.2-5.5.8m25.8-8c1.4-1.4 5.8-1 7 3.6.3 1.2-7.4 3.5-8.4 2.6-1.7-1.7.5-5.3 1.4-6.2m5.7 7.3c3.5-3.5 5.7 2.3 3.4 4.7-.9.9-3.4 1.2-4.3.3-1-.9 0-4.1.9-5m-8.7 1.7c1-1 5.1-2.1 6-1.2s0 5.2-1 6.2-4.8 1.5-5.7.6c-.9-.8-.3-4.6.7-5.6m6.2 6.2c1-1 4.7-1.8 5.6-.9 1.7 1.7.3 4.9-.6 5.8s-4.9 1.5-5.8.6c-1-.8-.2-4.5.8-5.5m-12.1-12.1c1-1 4.8-2.4 5.7-1.5s-.1 5.1-1.1 6.1-4.7 1.8-5.6.9 0-4.5 1-5.5m-11.8-11.6c1-1 3.7-1.4 4.6-.5s.5 3.6-.5 4.6-4.3 2.1-5.2 1.2c-1-1 .1-4.4 1.1-5.3m6.8 0c.9-.9 6.5.8 5.6 1.7s-4.7 2.4-5.6 1.5-.9-2.3 0-3.2m7.2 3.7c1.2-1.2 6.2-1.4 6.7 1.8.2 1.2-6.4 4.2-7.3 3.2-.9-.8-.2-4.1.6-5m-8.2 1.9c1-1 4.7-1.8 5.6-.9s.2 4.8-.8 5.7c-1 1-4.7 1.6-5.6.7-.9-.8-.2-4.5.8-5.5" fill="#e7a74f"/><g fill="#84b234"><path d="m21.9 18.4c3.7 3.7 4.5 6.1 3.6 7-1 1-3.3.2-7-3.6s-6.5-10-6.5-10 6.2 2.9 9.9 6.6"/><path d="m25.7 31.5c3.3-2.7 3.8-4.8 2.7-6.1s-3.4-1.2-6.7 1.4c-3.3 2.7-5.3 8.2-5.3 8.2s6-.8 9.3-3.5"/><path d="m21.4 24.2c4.7 0 6.9 1.2 7.2 2.7.4 1.5-1.3 2.8-6 2.8-4.6.1-10.8-2.7-10.8-2.7s4.9-2.8 9.6-2.8"/><path d="m20.9 20.4c4.8 1.3 6.7 3 6.6 4.5s-2.1 2.1-6.9.8-10.4-5.5-10.4-5.5 5.9-1.1 10.7.2"/><path d="m31.5 25.7c-2.7 3.3-4.8 3.8-6.1 2.7s-1.2-3.4 1.4-6.7c2.7-3.3 8.2-5.3 8.2-5.3s-.8 6-3.5 9.3"/><path d="m24.2 21.4c0 4.7 1.2 6.9 2.7 7.2 1.5.4 2.8-1.3 2.8-6s-2.7-10.9-2.7-10.9-2.8 5-2.8 9.7"/><path d="m20.4 20.9c1.3 4.8 3 6.7 4.5 6.6s2.1-2.1.8-6.9-5.5-10.4-5.5-10.4-1.1 5.9.2 10.7"/></g><path d="m29.8 22.5c-1.1-2.2-3.3-3.8-3.3-3.8s-.8 1.7-1.2 3.6c-2.1-.9-5.6-2.7-5.6-2.7s1.8 3.5 2.7 5.6c-2 .4-3.6 1.2-3.6 1.2s1.7 2.2 3.8 3.3c-1.6 2.3-2.5 5.5-2.5 5.5s6.2-1.8 9.8-5.4 5.4-9.8 5.4-9.8-3.2.9-5.5 2.5" fill="#8cc63e"/></svg>